Patient4_TMGait_0pt6_01_right_27_EMG.mot
version=1
nRows=36
nColumns=33
inDegrees=no
endheader
time	1LAddLong	2LGlutMax	3LGlutMed	4LIliopsoas	5LSemiMemb	6LBicFemLong	7LRecFem	8LVastMed	9LVastLat	10LGasMed	11LTibAnt	12lTibPost	13LPeroneusLong	14LSol	15LExtDigLong	16LFlexDigLong	17RAddLong	18RGlutMax	19RGlutMed	20RIliopsoas	21RSemiMemb	22RBicFemLong	23RRecFem	24RVastMed	25RVastLat	26RGasMed	27RTibAnt	28RTibPost	29RPeroneusLong	30RSol	31RExtDigLong	32RFlexDigLong
33.525	0.019989	-0.04303	-0.20355	0.007935	0.001831	-0.055847	0.11322	0.007935	0.10773	-0.079651	-0.24872	0.00946	0.32593	0.22278	-0.23987	0.019531	0.031433	0.012665	-0.064087	0.25787	-0.10773	-0.022278	-0.028534	-0.065002	0.017242	-0.014801	0.083771	0.001068	-0.38773	-0.01236	-0.001831	0.001678
33.526	0.01709	-0.053253	-0.32333	0.00473	0.018768	-0.068817	0.10513	0.010376	0.11398	-0.05127	0.019073	-0.001526	0.10696	0.050964	-0.3624	0.010529	0.025024	-0.018311	-0.12421	0.28595	-0.14496	-0.03952	-0.039368	-0.061188	0.043335	-0.010681	0.1091	-0.001984	-0.57968	-0.01297	-0.002594	-0.003204
33.527	0.014496	-0.052795	-0.32089	0.006561	0.017395	-0.040741	0.11444	-0.003662	0.11307	-0.016174	0.21133	0.003967	0.014954	-0.17288	-0.49789	-0.006714	0.011292	-0.002747	-0.15808	0.13748	-0.020447	-0.049286	-0.086823	-0.071869	0.023499	-0.00885	0.068359	0.001373	-0.081177	-0.021515	-0.000458	0.000763
33.528	0.009918	-0.02121	-0.26627	0.033112	0.007019	-0.025787	0.11261	0.008392	0.11627	-0.015564	0.06485	0.005188	-0.14633	-0.21866	-0.70099	-0.016479	0.00351	0.017395	-0.16098	0.041656	0.13351	0.014191	-0.076447	-0.084229	0.024109	-0.003052	0.024567	0.000458	0.59815	-0.040741	-0.00412	-0.011444
33.529	0.009918	-0.009155	-0.095367	0.020599	0.011292	-0.042572	0.11078	0.006256	0.11047	0.004578	-0.1297	0.002289	-0.028229	-0.21454	-0.35767	-0.006866	-0.002594	0.090179	0.11429	0.034332	0.030518	0.053406	-0.05722	-0.10864	0.022736	-0.010681	0.001221	0.001373	0.52658	-0.049744	-0.001068	0.002136
33.53	0.016785	0.010071	0.11108	-0.013733	0.006714	-0.030212	0.10712	0.008087	0.092163	-0.010986	-0.15228	0.005188	0.30563	-0.19867	0.1619	-0.009918	-0.019226	0.032959	0.10651	0.027466	-0.050964	0.057678	-0.04715	-0.11124	0.002594	-0.014038	0.046387	-0.005341	-0.002136	-0.028381	-0.002136	-0.00824
33.531	0.022125	-0.004883	-0.013428	-0.03067	0.00824	-0.01236	0.13214	0.010681	0.074005	-0.001373	-0.22049	0.002899	-0.068512	-0.10925	0.55328	-0.000305	-0.020905	0.050354	-0.0354	-0.057068	-0.18616	0.015259	-0.042877	-0.1622	0.011597	-0.013885	0.03418	-0.002899	0.16724	-0.049744	-0.001984	0.000305
33.532	0.010223	-0.014801	0.033417	-0.022888	0.008087	-0.011749	0.14755	0.007477	0.047455	-0.033722	-0.18005	0.00412	0.16724	-0.096893	0.007629	0.011749	0.028076	0.012054	-0.038757	-0.11108	-0.24521	-0.031586	-0.022125	-0.1712	-0.00824	-0.014038	0.045166	-0.001831	0.215	-0.042267	-0.007019	0.005493
33.533	0.016174	-0.038605	0.093536	-0.024719	0.005341	0.034027	0.14771	0.007782	0.031433	-0.021973	-0.26581	0.000153	0.32074	-0.10056	0.1619	0.004578	0.050812	-0.03952	-0.11978	-0.10132	-0.21606	-0.054169	-0.042725	-0.095367	0.023499	-0.022736	0.063324	0.001221	0.2005	-0.075989	-0.002289	0.00473
33.534	0.013885	-0.041046	0.020294	-0.01709	0.007782	0.041656	0.14496	0.009308	0.032501	0.024109	-0.32486	0.004425	0.13931	-0.097351	-0.069122	0.006256	0.022736	0.019684	0.014954	-0.17792	-0.12589	-0.049591	-0.029449	-0.093842	0.029907	-0.028229	0.03891	-0.000763	0.27496	-0.046844	-0.004883	0.006561
33.535	0.010529	-0.04303	-0.04303	0.007324	-0.000305	0.034485	0.14679	0.011597	0.028839	0.012512	-0.069733	0.002899	-0.1181	-0.046844	-0.077667	-0.00061	-0.002136	0.056915	0.17685	-0.1442	-0.11612	-0.094299	-0.020905	-0.090942	0.011139	-0.025177	0.066833	0.000305	0.3685	-0.029297	-0.003357	0.004578
33.536	0.009003	-0.040436	-0.11856	0.015869	0.010071	0.041656	0.17364	0.011749	0.024872	0.026093	0.078583	0.007324	-0.53802	-0.03479	-0.096893	-0.000305	-0.011902	0.00473	0.14679	0.011597	-0.16571	-0.09552	-0.043945	-0.07309	0.008392	-0.031433	0.076141	-0.006256	0.4512	-0.005035	-0.003052	0.009766
33.537	0.006561	-0.049591	-0.12039	0.017395	0.004578	0.037994	0.17609	0.014496	0.034027	0.019684	0.044708	0.005798	-0.41748	-0.010071	-0.30243	0.005646	0.024567	0.017395	-0.079803	0.1294	-0.09201	-0.10437	-0.048828	-0.098877	0.040436	-0.030212	0.095062	-0.001068	0.2385	-0.015717	-0.003967	0.002899
33.538	0.004425	-0.041962	-0.067444	0.016174	0.010223	0.041046	0.19119	0.009155	0.031891	0.023346	0.042114	0.001221	0.055084	-0.007935	-0.18539	0.007629	0.01297	0.000458	-0.24933	0.053253	0.23865	0.12131	-0.019836	-0.16357	0.004883	-0.030823	0.072632	0.000305	-0.29068	-0.06958	-0.011597	0.004578
33.539	0.01297	-0.037079	-0.069275	0.012817	0.002747	0.035858	0.18677	0.012207	0.039368	0.023804	0.094299	0.003204	0.24262	-0.054016	0.11231	0.010834	0.006409	-0.023041	-0.19867	-0.00473	0.021973	0.35996	-0.022583	-0.12955	0.005493	-0.027008	0.0737	0.000458	-0.1683	-0.039673	-0.001068	-0.000916
33.54	0.004425	-0.042725	-0.038757	0.016785	0.003662	0.032196	0.17517	0.010681	0.023651	0.030823	0.1648	0.003815	-0.12604	-0.061035	0.242	-0.010376	-0.054016	0.068665	-0.018005	-0.014191	0.11993	0.13687	-0.060425	-0.026245	0.041199	-0.029144	0.044708	-0.005646	0.006409	-0.027924	-0.003662	0.001068
33.541	0.01297	-0.078278	-0.096283	0.019379	0.00061	0.036011	0.16586	0.00824	0.006714	0.010071	0.14801	0.002136	-0.056	-0.13611	0.16769	0.002441	-0.039063	0.036163	0.098877	-0.054932	0.19775	0.06485	-0.11032	0.01236	0.044556	-0.034027	-0.020294	-0.004578	0.037689	-0.036469	-0.003357	0.002136
33.542	0.001984	-0.061951	-0.18326	0.014954	0.004425	0.010223	0.15289	0.00885	0.028076	0.036469	0.03067	0.005951	-0.080109	-0.073242	0.1033	0.010071	-0.039673	0.018005	0.10605	-0.059357	0.19028	-0.037079	-0.067139	-0.046387	0.029755	-0.032959	0.032959	-0.004578	0.10529	-0.045319	-0.001526	-0.007172
33.543	-0.003662	-0.071716	-0.17731	0.009766	-0.006256	0.01709	0.15442	0.012817	0.04425	0.031433	-0.070038	0.005035	0.26489	-0.10605	0.1239	0.02243	-0.051117	0.041351	0.27313	-0.020142	0.07843	0.078278	-0.084076	-0.046082	0.043793	-0.029907	0.050507	-0.004272	-0.007477	-0.059509	-0.002899	-0.009155
33.544	0.000153	-0.09079	-0.045013	0.012207	-0.006866	0.011597	0.20645	0.008087	0.030212	0.016174	-0.10101	-0.000763	0.34012	-0.12283	0.19684	0.011749	-0.042877	-0.014038	0.088654	-0.036316	0.011292	0.072632	-0.090485	0.026855	0.043945	-0.030823	0.011444	-0.003204	-0.3418	-0.038147	-0.001221	-0.014038
33.545	0.003967	-0.044708	0.058594	0.010071	0.001221	0.002136	0.19043	0.010986	0.034027	0.00885	-0.053101	0.003204	0.13153	-0.10391	0.15823	0.000916	-0.016174	0.009766	-0.075226	-0.061188	0.037689	0.059814	-0.060577	0.015717	0.034943	-0.020142	-0.058441	-0.002136	-0.33112	-0.058289	-0.003967	-0.009155
33.546	0.003967	-0.071106	0.028381	0.009766	0.005951	-0.022888	0.15778	0.007782	0.010986	-0.004883	0.04425	0.004578	0.086517	-0.075989	-0.012817	0.000305	-0.005493	0.000916	-0.048828	-0.039673	0.048676	0.041199	-0.048981	-0.02182	0.036163	-0.030365	-0.031891	-0.005188	-0.092163	-0.055695	0.007782	-0.018311
33.547	0.009613	-0.050507	-0.093231	-0.003662	0.001526	0.005798	0.21042	0.011902	-0.10788	-0.029297	0.10498	0.009766	-0.086365	-0.010223	-0.087585	0.012054	-0.012665	-0.000305	0.16663	-0.00061	0.039215	-0.022888	-0.056305	-0.052185	0.02182	-0.032349	0.065155	-0.007172	-0.17136	-0.035248	-0.00351	-0.023346
33.548	0.02182	-0.043335	-0.11124	0.00412	-0.000153	-0.022583	0.23346	0.014038	-0.070343	-0.023804	0.10071	0.002899	-0.36423	0.003357	-0.075226	0.009155	0.002594	0.013275	0.2948	-0.015259	0.067291	-0.066986	-0.053253	-0.093689	0.020142	-0.031128	0.06485	-0.004272	0.001984	-0.018311	-0.000916	-0.02533
33.549	0.007019	-0.047455	-0.14069	0.017853	0.002899	-0.036774	0.26474	-0.012054	-0.043182	-0.000305	0.012054	0.005493	-0.1358	-0.005188	-0.068512	0.020142	0.007629	-0.014954	-0.017242	-0.020294	0.040131	-0.057983	-0.071259	-0.047455	0.038452	-0.023804	0.052643	-0.000458	-0.03891	-0.032043	-0.002136	-0.022583
33.55	0.022888	0.00946	-0.15991	0.027008	0.002899	-0.042419	0.22873	0.016632	0.004883	-0.00412	-0.019989	0.003052	0.026245	-0.002441	-0.029755	0.02182	0.027771	0.022888	-0.14252	-0.019989	-0.044708	-0.025024	-0.083466	-0.023804	0.031128	-0.019531	0.039825	-0.00351	-0.10529	-0.064697	0.007172	-0.020142
33.551	0.004425	-0.047607	-0.13641	0.001221	0.005798	-0.047607	0.23972	-0.002441	0.005035	0.022736	-0.06424	0.008392	0.112	-0.03479	0.032806	0.030975	0.027466	0.010529	-0.18234	-0.013885	0.004272	-0.011444	-0.066071	-0.084686	0.009918	-0.011292	0.039368	-0.001068	-0.21057	-0.080261	-0.003357	-0.020752
33.552	0.001068	-0.011444	-0.16068	-0.01297	0.014648	-0.034332	0.21774	0.001068	0.014343	0.048676	-0.034332	0.000916	0.34225	-0.018311	0.10193	0.035706	0.047607	0.003967	-0.37476	-0.007172	-0.017395	-0.034943	0.005646	-0.14328	0.032043	-0.010834	0.04364	0.001984	-0.20309	-0.050201	-0.002289	-0.0177
33.553	0.012665	-0.037537	-0.12741	0.006104	0.011749	-0.048828	0.11368	0.005646	0.016479	0.078735	0.004883	0.00885	-0.062408	-0.10223	-0.038147	-0.034637	0.018768	0.058746	-0.32303	-0.010986	-0.15045	-0.039825	-0.086212	-0.061188	0.03479	-0.004578	0.046692	-0.005188	-0.28122	-0.00061	-0.002594	-0.00946
33.554	0.007172	-0.02182	-0.06012	0.017242	0.012054	-0.035095	-0.003357	0.004883	0.056915	0.10208	0.023193	0.002441	-0.10605	-0.095062	0.34302	0.011139	0.005188	0.034943	-0.13367	-0.013885	-0.38437	0.1236	-0.059509	-0.023956	0.016479	-0.005798	0.028839	-0.006714	0.072021	0.00412	0.004578	-0.014343
33.555	-0.000153	-0.020142	-0.20233	0.023956	0.00946	0.019836	0.088196	0.001221	0.054016	0.090179	0.002899	0.002441	-0.061188	-0.029144	0.009766	0.057831	0.019836	0.011292	-0.04776	-0.012817	-0.50995	0.26062	-0.028534	-0.043793	0.022125	-0.000916	-0.055542	-0.002747	0.62134	-0.00351	-0.000916	-0.017853
33.556	0.012207	-0.009613	-0.19134	0.004425	0.00351	0.054779	0.17639	0.006256	0.013275	0.069275	-0.032501	0.002594	0.066376	0.083313	0.18494	0.03418	-0.034332	0.028687	-0.14191	-0.006561	0.13489	0.22934	-0.052795	0.016479	0.03067	0.001526	-0.13229	-0.002899	0.14664	0.00351	-0.002899	-0.012512
33.557	0.006104	-0.001984	-0.043793	-0.004883	0.005035	0.059204	0.14526	0.012207	-0.0177	0.046997	0.006104	0.002899	0.33188	0.079956	0.22308	0.042725	-0.045776	0.033722	0.037994	-0.00412	0.37888	0.14618	-0.071869	0.011292	0.038605	0.007324	-0.19501	-0.012817	-0.061493	-0.040283	-0.00351	-0.010376
33.558	0.014801	-0.01709	-0.025024	-0.001373	0.001526	0.02594	0.12085	0.012207	-0.016632	0.014343	0.01297	0.005646	0.10681	0.084991	-0.000763	0.028076	-0.022583	0.011902	0.02655	-0.012207	0.11444	0.019379	-0.054474	-0.037231	0.029144	0.014954	-0.1268	-0.005341	-0.11154	-0.087891	-0.008392	-0.004883
33.559	0.01236	-0.005035	-0.084839	0.004883	0.002747	-0.006409	0.1294	0.013123	0.011292	-0.017242	0.033569	-0.007477	0.35248	0.019073	-0.24231	0.010986	-0.022736	-0.008087	-0.10254	-0.055084	-0.005951	-0.10071	-0.076904	-0.032806	0.022583	0.012665	0.015869	-0.007019	-0.025787	-0.043182	-0.006561	-0.001678
33.56	0.001068	-0.020752	-0.072937	0.013123	0.007935	-0.000458	0.14526	0.007629	0.003357	-0.075989	0.01297	0.002747	0.11459	0.010071	-0.33737	0.003662	-0.006104	-0.012817	0.066681	-0.03067	-0.020447	-0.12299	-0.014954	-0.050201	0.011597	0.004425	0.13657	-0.006409	0.21622	0.039978	-0.005951	-0.011292
